<svg width="30" height="35" viewBox="0 0 30 35" fill="none" xmlns="http://www.w3.org/2000/svg">
<path d="M29.9825 33.5382L27.7769 9.81991C27.7167 9.17219 27.1545 8.67605 26.4811 8.67605H21.9327V6.69518C21.9327 3.00346 18.8225 0 14.9995 0C11.1767 0 8.06679 3.00346 8.06679 6.69518V8.67605H3.51526C2.84187 8.67605 2.27967 9.17219 2.21948 9.81991L0.00520201 33.6315C-0.0274093 33.9829 0.0943627 34.3312 0.340856 34.5915C0.587349 34.8518 0.935839 35 1.30098 35H28.6955C28.6966 35 28.698 35 28.699 35C29.4177 35 30 34.4375 30 33.7437C29.9998 33.6739 29.9939 33.6051 29.9825 33.5382ZM10.6688 6.69518C10.6688 4.38886 12.6116 2.51251 14.9997 2.51251C17.3879 2.51251 19.3309 4.38886 19.3309 6.69518V8.67605H10.6688V6.69518ZM2.72409 32.4877L4.7047 11.1886H8.06679V13.4351C8.06679 14.1289 8.64911 14.6913 9.36778 14.6913C10.0864 14.6913 10.6688 14.1289 10.6688 13.4351V11.1886H19.3309V13.4351C19.3309 14.1289 19.9132 14.6913 20.6319 14.6913C21.3505 14.6913 21.9329 14.1289 21.9329 13.4351V11.1886H25.2918L27.2724 32.4877H2.72409V32.4877Z" fill="#15295B"/>
</svg>
