<svg width="39" height="39" viewBox="0 0 39 39" fill="none" xmlns="http://www.w3.org/2000/svg">
<circle opacity="0.4" cx="19.5" cy="19.5" r="19.5" fill="#00AFF2"/>
<path fill-rule="evenodd" clip-rule="evenodd" d="M23.6405 17.1412C23.0084 18.6722 21.5222 19.6688 19.8754 19.6661C17.6301 19.6624 15.8118 17.8289 15.8118 15.5684C15.8118 13.9104 16.8042 12.4158 18.326 11.782C19.8478 11.1481 21.599 11.4999 22.7625 12.6733C23.9261 13.8466 24.2726 15.6102 23.6405 17.1412ZM22.5681 14.454C22.1175 13.357 21.0545 12.6415 19.8753 12.6415C19.1031 12.6397 18.3619 12.9473 17.8152 13.4964C17.2686 14.0455 16.9613 14.791 16.9613 15.5684C16.9586 16.7556 17.6669 17.8273 18.7556 18.2835C19.8442 18.7397 21.0987 18.4904 21.9335 17.6519C22.7682 16.8134 23.0188 15.5511 22.5681 14.454Z" fill="white"/>
<path d="M25.7969 22.9967C25.4493 22.2566 24.6206 21.7519 23.3507 21.4963C22.7637 21.3618 22.167 21.2741 21.5663 21.2338C20.4677 21.1396 19.3632 21.1396 18.2646 21.2338C17.651 21.2732 17.0411 21.3586 16.44 21.4895C15.1635 21.7519 14.3347 22.2431 13.9805 23.0034C13.6928 23.6146 13.6928 24.3234 13.9805 24.9345C14.4283 25.689 15.1841 26.2061 16.0457 26.3475C16.2512 26.4157 16.4773 26.3633 16.6325 26.2116C16.7878 26.0599 16.8465 25.834 16.7851 25.6252C16.7236 25.4164 16.5521 25.2592 16.3398 25.2171V25.2171C15.8052 25.1523 15.3212 24.8673 15.0031 24.4299C14.9367 24.2819 14.9025 24.1213 14.9028 23.9589C14.9026 23.7987 14.9368 23.6403 15.0031 23.4946C15.1902 23.1111 15.7583 22.8218 16.674 22.6199C17.2089 22.5032 17.7518 22.4268 18.298 22.3911C19.3319 22.2969 20.372 22.2969 21.4059 22.3911C21.9592 22.4257 22.509 22.5045 23.05 22.6266C23.9456 22.8083 24.5203 23.1111 24.7008 23.5014C24.8412 23.7947 24.8412 24.1365 24.7008 24.4299C24.5203 24.8134 23.9456 25.1028 23.0299 25.3046C22.4972 25.4213 21.9566 25.4978 21.4125 25.5334C20.7977 25.5872 20.1828 25.6074 19.5746 25.6007V25.6007C19.2793 25.6327 19.0554 25.8836 19.0554 26.1827C19.0554 26.4817 19.2793 26.7327 19.5746 26.7647H19.7818C20.3031 26.7647 20.8645 26.7647 21.5262 26.6907C22.1245 26.6522 22.7189 26.5667 23.304 26.435C24.5939 26.1726 25.4226 25.668 25.7768 24.9278C26.0672 24.3189 26.0746 23.6117 25.7969 22.9967Z" fill="white"/>
</svg>
